<svg xmlns="http://www.w3.org/2000/svg" version="1.1" xmlns:xlink="http://www.w3.org/1999/xlink" width="1000" height="1000"><g clip-path="url(#SvgjsClipPath1103)"><rect width="1000" height="1000" fill="#b1b1b1"></rect><g transform="matrix(4.5,0,0,4.5,50,50)"><svg xmlns="http://www.w3.org/2000/svg" version="1.1" xmlns:xlink="http://www.w3.org/1999/xlink" width="200" height="200"><svg xmlns="http://www.w3.org/2000/svg" version="1.1" xmlns:xlink="http://www.w3.org/1999/xlink" viewBox="0 0 200 200"><rect width="200" height="200" fill="url('#gradient')"></rect><defs><linearGradient id="gradient" gradientTransform="rotate(0 0.5 0.5)"><stop offset="0%" stop-color="#b1b1b1"></stop><stop offset="100%" stop-color="#b1b1b1"></stop></linearGradient><clipPath id="SvgjsClipPath1103"><rect width="1000" height="1000" x="0" y="0" rx="500" ry="500"></rect></clipPath></defs><g><g fill="#000000" transform="matrix(4.190404515522108,0,0,4.190404515522108,8.50158168349978,129.79803434382714)" stroke="#020202" stroke-width="0"><path d="M9.89-8.57L9.89-6.03L4.50-6.03L4.50-2.64L10.87-2.64L10.87 0L1.07 0L1.07-14.22L10.89-14.22L10.89-11.57L4.50-11.57L4.50-8.57L9.89-8.57ZM20.06 0L17.55-5.02L15.69-5.02L15.69 0L12.27 0L12.27-14.22L17.86-14.22Q20.39-14.22 21.82-13.10Q23.24-11.97 23.24-9.92L23.24-9.92Q23.24-8.44 22.64-7.46Q22.04-6.48 20.76-5.88L20.76-5.88L23.73-0.15L23.73 0L20.06 0ZM15.69-11.57L15.69-7.67L17.86-7.67Q18.84-7.67 19.33-8.18Q19.82-8.69 19.82-9.61Q19.82-10.53 19.33-11.05Q18.83-11.57 17.86-11.57L17.86-11.57L15.69-11.57ZM36.95-7.60L36.95-1.76Q36.16-0.88 34.64-0.34Q33.12 0.20 31.30 0.20L31.30 0.20Q28.51 0.20 26.84-1.51Q25.17-3.22 25.05-6.27L25.05-6.27L25.04-7.50Q25.04-9.60 25.78-11.17Q26.52-12.73 27.91-13.58Q29.29-14.42 31.10-14.42L31.10-14.42Q33.76-14.42 35.23-13.21Q36.70-11.99 36.94-9.58L36.94-9.58L33.64-9.58Q33.47-10.77 32.88-11.28Q32.29-11.79 31.22-11.79L31.22-11.79Q29.93-11.79 29.23-10.69Q28.53-9.60 28.52-7.57L28.52-7.57L28.52-6.71Q28.52-4.58 29.24-3.51Q29.97-2.44 31.53-2.44L31.53-2.44Q32.87-2.44 33.53-3.04L33.53-3.04L33.53-5.24L31.14-5.24L31.14-7.60L36.95-7.60ZM42.60-14.22L42.60 0L39.18 0L39.18-14.22L42.60-14.22Z"></path></g></g></svg></svg></g></g></svg>